<svg width="29" height="76" viewBox="0 0 29 76" fill="none" xmlns="http://www.w3.org/2000/svg">
<path d="M8.52214 0.108643H20.5697C25.1592 0.108643 28.8882 9.93439 28.8882 22.0276V53.7723C28.8882 59.5856 28.0118 65.1608 26.4517 69.2714C24.8917 73.382 22.7759 75.6913 20.5697 75.6913H8.52214C3.93261 75.6913 0.203613 65.8656 0.203613 53.7723V22.0276C0.203613 16.2143 1.08003 10.6392 2.64005 6.52856C4.20008 2.41796 6.31593 0.108643 8.52214 0.108643ZM8.23529 7.66691C6.86592 7.66691 5.55264 9.10028 4.58434 11.6517C3.61605 14.2031 3.07207 17.6636 3.07207 21.2718V54.5282C3.07207 62.0486 5.38118 68.133 8.23529 68.133H20.8565C22.2259 68.133 23.5392 66.6997 24.5075 64.1483C25.4757 61.5969 26.0197 58.1364 26.0197 54.5282V21.2718C26.0197 13.7513 23.7106 7.66691 20.8565 7.66691H8.23529ZM22.0756 13.3356C22.5511 13.3356 23.0071 13.8333 23.3433 14.7192C23.6795 15.6051 23.8684 16.8067 23.8684 18.0595C23.8684 19.3124 23.6795 20.5139 23.3433 21.3998C23.0071 22.2857 22.5511 22.7834 22.0756 22.7834C21.6001 22.7834 21.1441 22.2857 20.8079 21.3998C20.4717 20.5139 20.2828 19.3124 20.2828 18.0595C20.2828 16.8067 20.4717 15.6051 20.8079 14.7192C21.1441 13.8333 21.6001 13.3356 22.0756 13.3356ZM14.5459 19.0043C16.4478 19.0043 18.2718 20.9951 19.6167 24.5387C20.9615 28.0823 21.717 32.8885 21.717 37.9C21.717 42.9114 20.9615 47.7176 19.6167 51.2612C18.2718 54.8049 16.4478 56.7956 14.5459 56.7956C12.644 56.7956 10.82 54.8049 9.47514 51.2612C8.13028 47.7176 7.37476 42.9114 7.37476 37.9C7.37476 32.8885 8.13028 28.0823 9.47514 24.5387C10.82 20.9951 12.644 19.0043 14.5459 19.0043ZM14.5459 26.5626C13.4048 26.5626 12.3104 27.757 11.5034 29.8832C10.6965 32.0094 10.2432 34.8931 10.2432 37.9C10.2432 40.9068 10.6965 43.7906 11.5034 45.9167C12.3104 48.0429 13.4048 49.2374 14.5459 49.2374C15.687 49.2374 16.7814 48.0429 17.5884 45.9167C18.3953 43.7906 18.8486 40.9068 18.8486 37.9C18.8486 34.8931 18.3953 32.0094 17.5884 29.8832C16.7814 27.757 15.687 26.5626 14.5459 26.5626Z" fill="black"/>
</svg>
